<svg xmlns="http://www.w3.org/2000/svg" version="1.1" xmlns:xlink="http://www.w3.org/1999/xlink" xmlns:svgjs="http://svgjs.dev/svgjs" width="1500" height="1500" viewBox="0 0 1500 1500"><g transform="matrix(1,0,0,1,-0.7499999999998863,-0.7496929825740608)"><svg viewBox="0 0 280 280" data-background-color="#1f2d5a" preserveAspectRatio="xMidYMid meet" height="1500" width="1500" xmlns="http://www.w3.org/2000/svg" xmlns:xlink="http://www.w3.org/1999/xlink"><g id="tight-bounds" transform="matrix(1,0,0,1,0.13999999999998636,0.14005730991945597)"><svg viewBox="0 0 279.72 279.72" height="279.72" width="279.72"><g><svg viewBox="0 0 279.72 279.72" height="279.72" width="279.72"><g><svg viewBox="0 0 279.72 279.72" height="279.72" width="279.72"><g id="textblocktransform"><svg viewBox="0 0 279.72 279.72" height="279.72" width="279.72" id="textblock"><g><svg viewBox="0 0 279.72 279.72" height="279.72" width="279.72"><g transform="matrix(1,0,0,1,102.7975527173972,73.92936372216631)"><svg viewBox="0 0 74.12489456520562 131.8612725556674" height="131.8612725556674" width="74.12489456520562"><g><svg xmlns="http://www.w3.org/2000/svg" xmlns:xlink="http://www.w3.org/1999/xlink" version="1.1" x="0" y="0" viewBox="25.993726958927287 11.190029342523125 38.01097053407146 67.61797065747686" enable-background="new 0 0 90 90" xml:space="preserve" height="131.8612725556674" width="74.12489456520562" class="icon-xg-0" data-fill-palette-color="accent" id="xg-0"><path d="M59.711 46.323c-0.963-0.594-2.056-0.781-3.249-0.572L51.75 13.964c-0.244-1.256-0.787-2.102-1.614-2.512-1.239-0.615-2.603 0.041-2.675 0.076-1.996 1.049-2.648 4.697-2.723 5.188L44.36 31.538c-0.025 0.297-0.08 0.434-0.078 0.475-0.047-0.02-0.123-0.061-0.168-0.1-0.045-0.037-0.096-0.068-0.149-0.092l-2.231-0.949c-0.035-0.016-0.072-0.027-0.109-0.035-2.455-0.498-4.189 0.699-5.176 1.914-0.049 0.043-0.09 0.09-0.121 0.148-0.176 0.227-0.33 0.451-0.451 0.664-1.475-0.213-2.741 0.043-3.772 0.762-1.387 0.965-1.935 2.502-2.126 3.227l-1.383 0.262c-3.486 0.631-2.539 9.768-2.32 11.523 0 1.09 0.85 2.932 1.855 4.736 0.009 0.148 0.076 0.293 0.197 0.396 0.01 0.008 0.036 0.029 0.049 0.041 1.186 2.07 2.509 4.006 2.912 4.584 1.518 9.186 3.84 12.518 5.527 13.693 0.773 0.539 1.352 0.639 1.729 0.619 2.388 1.238 3.843 4.996 3.856 5.035 0.086 0.229 0.304 0.367 0.533 0.367 0.066 0 0.137-0.012 0.203-0.037 0.293-0.111 0.441-0.439 0.329-0.734-0.067-0.178-1.681-4.359-4.56-5.723-0.1-0.049-0.229-0.061-0.336-0.049-0.027 0.014-3.926 0.313-6.181-13.482-0.014-0.086-0.046-0.164-0.095-0.234-0.437-0.623-1.097-1.607-1.791-2.721 0.588 0.26 1.234 0.455 1.87 0.455 0.164 0 0.328-0.012 0.491-0.039 0.329 0.014 1.461-0.027 2.293-0.834 0.594-0.574 0.877-1.398 0.863-2.432 0.627 0.264 1.314 0.42 2.073 0.42 0.345 0 0.704-0.031 1.075-0.098 0.071-0.018 1.756-0.498 2.508-1.945 0.271-0.52 0.367-1.092 0.328-1.703 0.309 0.158 0.631 0.281 0.963 0.357 0.332 0.078 0.652 0.111 0.957 0.111 1.422 0 2.478-0.705 2.532-0.742 1.751-1.191 1.253-3.201 0.728-4.125l-1.921-2.99c-0.17-0.264-0.523-0.34-0.787-0.17-0.266 0.17-0.341 0.521-0.172 0.787l1.905 2.961c0.097 0.174 0.902 1.715-0.392 2.596-0.014 0.01-1.191 0.795-2.587 0.461-1.043-0.242-1.959-1.053-2.721-2.408l-2.567-4.514-0.548-8.604c0.7-0.838 1.969-1.813 3.947-1.43l2.107 0.896c0.141 0.104 0.443 0.281 0.793 0.307l0.258 6.885c0.012 0.307 0.264 0.549 0.568 0.549 0.008 0 0.015-0.002 0.021-0.002 0.316-0.012 0.56-0.277 0.549-0.59l-0.285-7.617c-0.001-0.018-0.011-0.035-0.013-0.051 0.073-0.205 0.131-0.438 0.154-0.723l0.372-14.775c0.161-0.967 0.851-3.617 2.11-4.279 0.008-0.004 0.921-0.434 1.65-0.07 0.494 0.244 0.83 0.818 0.998 1.684l4.729 31.9c-0.361 0.129-0.729 0.279-1.104 0.473-0.194 0.08-4.8 2.008-7.426 7.988-0.931 2.119-0.479 3.375 0.067 4.057 0.978 1.225 2.981 1.504 4.645 1.252 0.012 0.021 0.015 0.046 0.029 0.066 0.116 0.168 0.307 0.252 0.496 0.244 0.102-0.006 0.207-0.039 0.297-0.104 0.113-0.078 1.467-0.77 3.78-3.467 0.204-0.242 0.179-0.602-0.062-0.807-0.238-0.203-0.598-0.178-0.805 0.063-0.798 0.932-1.475 1.607-2.022 2.102-0.095 0.063-0.208 0.145-0.358 0.248-0.236 0.41-2.786 1.047-4.441 0.213-1.13-0.568-1.326-1.715-0.582-3.41 2.432-5.535 6.77-7.371 6.857-7.41 1.768-0.912 3.202-1 4.386-0.271 3.789 2.328 3.755 12.049 3.759 12.074-1.475 10.863-6.946 11.664-7.02 11.674-0.313 0.035-0.537 0.316-0.504 0.629 0.031 0.291 0.278 0.508 0.566 0.508 0.02 0 0.041 0 0.061-0.002 0.262-0.029 6.42-0.814 8.033-12.725C64.011 59.024 64.043 48.987 59.711 46.323zM34.889 52.853c0.035 0.779-0.137 1.361-0.518 1.734-0.581 0.57-1.5 0.518-1.502 0.518-0.057-0.004-0.106-0.002-0.156 0.01-1.119 0.227-2.707-0.779-3.441-1.348-1.018-1.797-1.859-3.568-1.861-4.5-0.506-4.094-0.408-10.008 1.391-10.334l1.133-0.213 1.265 7.316c0.403 1.928 1.622 4.889 3.843 6.4C34.94 52.546 34.881 52.692 34.889 52.853zM39.518 47.054c0.344 0.611 0.73 1.102 1.141 1.531-0.008 0.078 0.002 0.154 0.029 0.23 0.275 0.775 0.27 1.453-0.019 2.008-0.511 0.994-1.763 1.369-1.75 1.369-5.007 0.895-6.542-6.092-6.601-6.371l-1.301-7.527c-0.006-0.035-0.026-0.063-0.037-0.096 0.008-0.023 0.029-0.041 0.033-0.066 0.002-0.02 0.32-1.889 1.749-2.877 0.864-0.6 1.982-0.766 3.319-0.5 0.089 0.018 0.174 0.006 0.256-0.016l0.475 7.443c0.005 0.086 0.029 0.17 0.072 0.244L39.518 47.054z" fill="#2f76db" data-fill-palette-color="accent"></path></svg></g></svg></g><g><path d="M8.713 94.438l0.344-0.819 18.346 16.811c0.266 0.212 0.441 0.477 0.525 0.794 0.084 0.317 0.075 0.615-0.026 0.893v0c-0.174 0.473-0.429 0.777-0.765 0.912-0.336 0.135-0.681 0.137-1.034 0.007v0c-0.186-0.04-0.366-0.134-0.54-0.284v0l-20.204-18.513c-0.307-0.256-0.494-0.547-0.561-0.872-0.067-0.325-0.027-0.647 0.119-0.967v0c0.12-0.328 0.318-0.592 0.591-0.792 0.272-0.194 0.578-0.286 0.918-0.276v0l27.155-1.1c0.223-0.004 0.436 0.031 0.638 0.106v0c0.454 0.167 0.759 0.45 0.912 0.85 0.154 0.4 0.161 0.79 0.023 1.169v0c-0.111 0.303-0.301 0.548-0.571 0.736-0.269 0.188-0.59 0.281-0.963 0.28v0zM26.739 93.212l-4.795 13.065-2.475-2.358 4.117-11.22z" fill="#fbfbfb" data-fill-palette-color="primary"></path><path d="M34.343 44.038l19.952 17.463c0.344 0.301 0.533 0.677 0.568 1.128 0.03 0.455-0.105 0.855-0.406 1.199v0c-0.301 0.344-0.671 0.521-1.108 0.531-0.438 0.01-0.829-0.135-1.173-0.437v0l-19.952-17.463c-0.344-0.301-0.531-0.67-0.559-1.107-0.029-0.436 0.107-0.827 0.408-1.17v0c0.319-0.364 0.69-0.553 1.113-0.567 0.428-0.019 0.813 0.122 1.157 0.423z" fill="#fbfbfb" data-fill-palette-color="primary"></path><path d="M71.152 15.685l13.381 22.89c0.231 0.395 0.291 0.811 0.181 1.249-0.116 0.442-0.371 0.778-0.765 1.009v0c-0.395 0.231-0.801 0.281-1.22 0.152-0.418-0.129-0.743-0.391-0.973-0.786v0l-13.382-22.891c-0.231-0.395-0.291-0.804-0.18-1.227 0.111-0.423 0.364-0.75 0.759-0.98v0c0.418-0.244 0.83-0.306 1.235-0.185 0.411 0.118 0.733 0.374 0.964 0.769z" fill="#fbfbfb" data-fill-palette-color="primary"></path><path d="M163.111 1.866l-3.145 24.661c-0.058 0.454-0.274 0.819-0.648 1.097-0.368 0.278-0.778 0.389-1.232 0.331v0c-0.507-0.065-0.887-0.276-1.139-0.633-0.253-0.358-0.35-0.763-0.292-1.217v0l3.144-24.661c0.061-0.48 0.271-0.853 0.631-1.12 0.359-0.266 0.779-0.368 1.259-0.307v0c0.454 0.058 0.817 0.26 1.092 0.607 0.281 0.348 0.391 0.762 0.33 1.242z" fill="#fbfbfb" data-fill-palette-color="primary"></path><path d="M210.984 25.289v0c1.59 0.891 2.658 1.921 3.205 3.091 0.541 1.166 0.698 2.406 0.471 3.72-0.231 1.32-0.726 2.657-1.485 4.012v0l-5.526 9.863c-0.223 0.399-0.549 0.663-0.977 0.794-0.428 0.13-0.841 0.084-1.24-0.14v0c-0.399-0.223-0.651-0.55-0.757-0.979-0.112-0.433-0.056-0.849 0.167-1.247v0l5.487-9.793c0.496-0.886 0.81-1.762 0.941-2.629 0.131-0.867 0.007-1.691-0.371-2.474-0.382-0.777-1.109-1.466-2.183-2.067v0c-0.985-0.552-2.006-0.843-3.061-0.871-1.064-0.026-2.043 0.181-2.937 0.62-0.894 0.44-1.589 1.102-2.085 1.988v0l-5.487 9.793c-0.223 0.399-0.546 0.665-0.968 0.799-0.428 0.13-0.841 0.084-1.24-0.14v0c-0.399-0.223-0.654-0.552-0.766-0.984-0.112-0.433-0.056-0.849 0.167-1.248v0l8.573-15.3c0.223-0.399 0.546-0.658 0.967-0.777 0.421-0.119 0.831-0.066 1.229 0.158v0c0.422 0.237 0.687 0.562 0.794 0.976 0.101 0.411 0.04 0.816-0.183 1.215v0l-1.395 2.49-1.129 0.385c0.459-0.544 1.071-1.011 1.836-1.399 0.767-0.379 1.606-0.638 2.515-0.776 0.91-0.138 1.831-0.138 2.763-0.001 0.939 0.141 1.83 0.447 2.675 0.921z" fill="#fbfbfb" data-fill-palette-color="primary"></path><path d="M251.138 109.045v0c-0.164-0.484-0.144-0.931 0.058-1.34 0.202-0.409 0.52-0.687 0.953-0.833v0l21.688-7.333-0.38 0.639-4.161-3.522c-0.205-0.186-0.354-0.416-0.447-0.69v0c-0.146-0.433-0.099-0.861 0.142-1.283 0.241-0.422 0.536-0.692 0.886-0.811v0c0.561-0.19 1.097-0.073 1.609 0.351v0l5.797 4.96c0.282 0.245 0.487 0.602 0.617 1.069v0c0.146 0.433 0.116 0.827-0.091 1.18-0.209 0.347-0.53 0.594-0.963 0.741v0l-23.589 7.976c-0.433 0.146-0.853 0.122-1.26-0.074-0.409-0.202-0.696-0.546-0.859-1.03z" fill="#fbfbfb" data-fill-palette-color="primary"></path><path d="M28.272 183.019l0.482 0.804-17.493-1.185c-0.43-0.007-0.799-0.118-1.108-0.331-0.311-0.219-0.526-0.501-0.645-0.844v0c-0.187-0.54-0.177-0.992 0.031-1.356 0.214-0.366 0.541-0.626 0.979-0.777v0c0.178-0.062 0.379-0.096 0.604-0.104v0l20.534 1.241c0.455 0.02 0.848 0.157 1.179 0.413 0.337 0.253 0.553 0.577 0.647 0.971v0c0.126 0.362 0.137 0.732 0.033 1.109-0.102 0.384-0.319 0.712-0.651 0.984v0l-15.015 13.488c-0.227 0.186-0.452 0.317-0.674 0.394v0c-0.54 0.187-1.029 0.162-1.468-0.077-0.445-0.237-0.741-0.565-0.886-0.984v0c-0.126-0.362-0.127-0.725-0.004-1.088 0.121-0.369 0.341-0.699 0.66-0.987v0zM18.826 192.619l-3.583-10.318 4.022 0.451 2.812 8.098z" fill="#fbfbfb" data-fill-palette-color="secondary"></path><path d="M38.992 197.587l-17.699 8.483c-0.497 0.238-0.992 0.271-1.485 0.097-0.493-0.174-0.859-0.509-1.098-1.006v0c-0.23-0.479-0.255-0.959-0.075-1.44 0.177-0.487 0.513-0.85 1.011-1.088v0l17.698-8.484c0.497-0.238 0.992-0.271 1.486-0.097 0.493 0.174 0.859 0.509 1.097 1.007v0c0.238 0.497 0.266 0.983 0.084 1.458-0.182 0.475-0.522 0.832-1.019 1.07z" fill="#fbfbfb" data-fill-palette-color="secondary"></path><path d="M43.735 205.759l-16.936 9.918c-0.476 0.279-0.967 0.352-1.473 0.219-0.506-0.132-0.898-0.436-1.176-0.912v0c-0.268-0.458-0.333-0.935-0.195-1.429 0.136-0.5 0.441-0.89 0.918-1.168v0l16.936-9.918c0.476-0.279 0.967-0.352 1.472-0.219 0.506 0.132 0.898 0.436 1.177 0.912v0c0.279 0.476 0.347 0.958 0.205 1.446-0.142 0.489-0.452 0.872-0.928 1.151z" fill="#fbfbfb" data-fill-palette-color="secondary"></path><path d="M54.483 221.93l-14.055 11.806c-0.422 0.355-0.905 0.496-1.448 0.425-0.543-0.071-0.985-0.31-1.326-0.716v0c-0.381-0.453-0.544-0.935-0.49-1.446 0.05-0.516 0.286-0.951 0.708-1.306v0l14.056-11.805c0.422-0.355 0.898-0.504 1.427-0.449 0.525 0.05 0.98 0.305 1.366 0.763v0c0.324 0.386 0.47 0.847 0.438 1.384-0.028 0.542-0.253 0.99-0.676 1.344z" fill="#fbfbfb" data-fill-palette-color="secondary"></path><path d="M62.615 233.732v0c1.151 1.062 1.802 2.112 1.954 3.147 0.161 1.036-0.017 2.056-0.534 3.062-0.516 1.015-1.225 2.012-2.128 2.991v0l-5.513 5.974c-0.374 0.405-0.82 0.621-1.337 0.646-0.513 0.03-0.972-0.142-1.377-0.516v0c-0.405-0.374-0.613-0.818-0.624-1.331-0.016-0.518 0.163-0.98 0.536-1.385v0l5.513-5.974c0.474-0.514 0.834-1.037 1.079-1.57 0.255-0.534 0.323-1.084 0.205-1.65-0.108-0.567-0.481-1.144-1.118-1.733v0c-0.623-0.575-1.265-0.934-1.928-1.078-0.653-0.145-1.285-0.115-1.895 0.09-0.606 0.2-1.146 0.557-1.62 1.071v0l-5.513 5.974c-0.374 0.405-0.817 0.623-1.33 0.653-0.518 0.026-0.977-0.146-1.376-0.516v0c-0.405-0.374-0.616-0.82-0.632-1.337-0.011-0.513 0.17-0.973 0.544-1.378v0l8.892-9.636c0.374-0.405 0.817-0.623 1.33-0.653 0.522-0.03 0.986 0.141 1.391 0.515v0c0.4 0.369 0.606 0.816 0.617 1.339 0.011 0.513-0.17 0.973-0.544 1.378v0l-0.923 1-0.28-0.395c0.385-0.13 0.847-0.224 1.387-0.284 0.55-0.06 1.123-0.057 1.721 0.009 0.602 0.061 1.206 0.22 1.81 0.477 0.6 0.252 1.165 0.622 1.693 1.11z" fill="#fbfbfb" data-fill-palette-color="secondary"></path><path d="M94.639 260.495v0c-0.717 1.415-1.624 2.618-2.721 3.608-1.094 0.984-2.306 1.726-3.638 2.227-1.332 0.501-2.722 0.716-4.171 0.645-1.449-0.071-2.872-0.46-4.27-1.168v0c-1.397-0.708-2.547-1.622-3.45-2.742-0.902-1.12-1.545-2.366-1.928-3.736-0.39-1.373-0.508-2.79-0.357-4.251 0.149-1.47 0.582-2.912 1.3-4.328v0c0.717-1.415 1.624-2.618 2.72-3.607 1.088-0.987 2.3-1.729 3.639-2.227 1.332-0.501 2.716-0.719 4.153-0.655 1.44 0.059 2.859 0.442 4.256 1.15v0c1.397 0.708 2.552 1.628 3.463 2.761 0.914 1.126 1.563 2.375 1.947 3.745 0.384 1.37 0.502 2.787 0.356 4.251-0.149 1.47-0.582 2.912-1.299 4.327zM90.959 258.631v0c0.641-1.266 0.968-2.543 0.981-3.833 0.01-1.284-0.276-2.454-0.856-3.509-0.581-1.056-1.459-1.881-2.635-2.477v0c-1.17-0.593-2.352-0.811-3.546-0.655-1.195 0.156-2.299 0.618-3.314 1.386-1.02 0.764-1.856 1.788-2.506 3.072v0c-0.641 1.266-0.971 2.542-0.99 3.828-0.022 1.278 0.258 2.445 0.839 3.5 0.581 1.056 1.456 1.88 2.625 2.472v0c1.176 0.596 2.361 0.815 3.556 0.66 1.195-0.156 2.307-0.618 3.336-1.386 1.032-0.773 1.869-1.793 2.51-3.058z" fill="#fbfbfb" data-fill-palette-color="secondary"></path><path d="M109.697 258.601v0c1.501 0.448 2.547 1.104 3.138 1.968 0.599 0.86 0.888 1.855 0.867 2.985-0.017 1.139-0.216 2.346-0.598 3.622v0l-2.326 7.789c-0.158 0.528-0.463 0.918-0.917 1.168-0.447 0.252-0.935 0.3-1.463 0.142v0c-0.528-0.158-0.91-0.465-1.146-0.921-0.242-0.458-0.284-0.951-0.127-1.48v0l2.326-7.789c0.2-0.67 0.293-1.298 0.279-1.885-0.006-0.591-0.186-1.115-0.541-1.572-0.346-0.461-0.935-0.816-1.766-1.065v0c-0.812-0.242-1.547-0.283-2.206-0.121-0.65 0.157-1.204 0.461-1.662 0.914-0.456 0.446-0.784 1.004-0.984 1.674v0l-2.326 7.789c-0.158 0.528-0.46 0.919-0.908 1.171-0.454 0.25-0.942 0.298-1.463 0.142v0c-0.528-0.158-0.913-0.466-1.156-0.924-0.236-0.456-0.275-0.949-0.117-1.477v0l3.752-12.563c0.158-0.528 0.46-0.919 0.908-1.171 0.456-0.257 0.948-0.306 1.476-0.149v0c0.522 0.156 0.903 0.466 1.143 0.931 0.236 0.456 0.275 0.949 0.116 1.477v0l-0.389 1.305-0.426-0.233c0.289-0.286 0.663-0.574 1.122-0.865 0.467-0.296 0.984-0.545 1.549-0.747 0.568-0.209 1.18-0.332 1.836-0.368 0.65-0.038 1.319 0.047 2.009 0.253z" fill="#fbfbfb" data-fill-palette-color="secondary"></path><path d="M125.399 279.274v0c-1.782-0.215-3.286-0.773-4.512-1.673-1.225-0.906-2.11-2.043-2.656-3.408-0.553-1.367-0.731-2.862-0.536-4.484v0c0.228-1.889 0.806-3.455 1.735-4.697 0.929-1.242 2.057-2.146 3.385-2.711 1.328-0.564 2.683-0.763 4.065-0.596v0c1.075 0.13 2.063 0.472 2.964 1.028 0.908 0.557 1.683 1.263 2.324 2.12 0.642 0.856 1.115 1.814 1.421 2.873 0.312 1.06 0.4 2.158 0.263 3.293v0c-0.081 0.505-0.331 0.891-0.75 1.159-0.412 0.269-0.871 0.372-1.378 0.311v0l-12.046-1.454-0.561-3.257 11.565 1.395-0.767 0.548 0.102-0.851c0.034-0.619-0.117-1.193-0.452-1.721-0.328-0.534-0.763-0.976-1.303-1.325-0.546-0.357-1.146-0.575-1.801-0.655v0c-0.627-0.076-1.225-0.06-1.793 0.048-0.568 0.101-1.076 0.327-1.525 0.68-0.441 0.346-0.82 0.842-1.134 1.488-0.315 0.646-0.535 1.483-0.659 2.511v0c-0.137 1.135-0.016 2.125 0.363 2.97 0.379 0.845 0.917 1.519 1.615 2.023 0.698 0.497 1.465 0.797 2.299 0.897v0c0.781 0.094 1.409 0.106 1.885 0.035 0.483-0.07 0.875-0.175 1.176-0.315 0.309-0.146 0.584-0.268 0.827-0.368v0c0.403-0.141 0.771-0.191 1.105-0.151v0c0.461 0.056 0.825 0.259 1.095 0.61 0.269 0.351 0.378 0.736 0.327 1.157v0c-0.068 0.567-0.424 1.046-1.067 1.435v0c-0.604 0.401-1.421 0.716-2.45 0.944-1.029 0.221-2.071 0.268-3.126 0.141z" fill="#fbfbfb" data-fill-palette-color="secondary"></path><path d="M141.843 272.155l-0.08-2.409c-0.018-0.551 0.148-1.017 0.499-1.399 0.344-0.381 0.791-0.581 1.343-0.599v0c0.867-0.029 1.645-0.186 2.335-0.471 0.69-0.292 1.23-0.74 1.621-1.345 0.397-0.605 0.579-1.395 0.547-2.37v0c-0.024-0.719-0.22-1.348-0.587-1.887-0.368-0.539-0.859-0.957-1.475-1.253-0.615-0.296-1.303-0.431-2.062-0.406v0c-0.591 0.02-1.142 0.142-1.652 0.367-0.51 0.232-0.971 0.533-1.383 0.904v0c-0.333 0.307-0.736 0.539-1.208 0.696-0.466 0.15-0.95 0.055-1.453-0.285v0c-0.517-0.366-0.807-0.814-0.872-1.344-0.058-0.523 0.128-1.013 0.557-1.471v0c0.733-0.811 1.607-1.449 2.621-1.914 1.014-0.471 2.102-0.725 3.264-0.764v0c1.458-0.048 2.786 0.241 3.985 0.868 1.198 0.626 2.165 1.489 2.901 2.588 0.736 1.099 1.127 2.358 1.174 3.775v0c0.035 1.062-0.095 2.005-0.391 2.829-0.289 0.824-0.713 1.537-1.271 2.141-0.566 0.597-1.229 1.083-1.99 1.458-0.761 0.375-1.593 0.651-2.495 0.829v0c-0.046 0.022-0.083 0.043-0.109 0.065-0.033 0.028-0.048 0.062-0.047 0.102v0l0.038 1.169c0.018 0.551-0.148 1.017-0.498 1.399-0.344 0.381-0.791 0.581-1.343 0.6v0c-0.551 0.018-1.011-0.152-1.379-0.51-0.375-0.358-0.572-0.812-0.59-1.363zM144.252 279.705l-0.413 0.013c-0.612 0.02-1.087-0.129-1.427-0.447-0.34-0.318-0.52-0.783-0.541-1.395v0l-0.018-0.534c-0.02-0.618 0.129-1.097 0.447-1.438 0.319-0.333 0.784-0.51 1.395-0.53v0l0.414-0.014c0.618-0.02 1.094 0.125 1.427 0.437 0.34 0.318 0.52 0.787 0.541 1.405v0l0.018 0.534c0.02 0.612-0.129 1.087-0.448 1.428-0.312 0.34-0.777 0.52-1.395 0.541z" fill="#fbfbfb" data-fill-palette-color="secondary"></path><path d="M178.294 250.872v0c0.472-0.135 0.946-0.079 1.423 0.169 0.477 0.248 0.794 0.646 0.952 1.195v0c0.052 0.181 0.08 0.376 0.084 0.585 0.01 0.207-0.02 0.418-0.091 0.634v0l-4.082 11.917-0.054-2.272 2.515 8.763c0.152 0.53 0.101 1.024-0.152 1.481-0.26 0.459-0.623 0.756-1.088 0.89v0c-0.511 0.147-0.995 0.093-1.452-0.161-0.457-0.253-0.762-0.645-0.914-1.175v0l-2.446-8.521 0.523 0.91-9.104-6.862c-0.276-0.207-0.492-0.422-0.646-0.644-0.148-0.223-0.251-0.435-0.309-0.635v0c-0.158-0.549-0.073-1.06 0.254-1.531 0.328-0.465 0.715-0.761 1.161-0.89v0c0.569-0.163 1.148-0.022 1.738 0.425v0l8.185 6.402-0.889 0.118 3.132-9.45c0.252-0.73 0.672-1.179 1.26-1.348z" fill="#fbfbfb" data-fill-palette-color="secondary"></path><path d="M201.682 255.525v0c0.728 1.582 1.017 3.133 0.865 4.654-0.148 1.527-0.657 2.897-1.527 4.111-0.876 1.217-2.043 2.162-3.503 2.834v0c-1.466 0.675-2.943 0.948-4.43 0.819-1.494-0.126-2.869-0.63-4.126-1.51-1.253-0.874-2.244-2.102-2.973-3.683v0c-0.725-1.576-1.014-3.127-0.865-4.654 0.151-1.52 0.662-2.895 1.532-4.124 0.864-1.227 2.029-2.177 3.495-2.853v0c1.46-0.672 2.939-0.939 4.439-0.8 1.494 0.141 2.867 0.649 4.121 1.523 1.256 0.88 2.247 2.108 2.972 3.683zM198.219 257.12v0c-0.45-0.977-1.036-1.736-1.759-2.277-0.729-0.538-1.517-0.86-2.365-0.966-0.851-0.097-1.68 0.041-2.486 0.412v0c-0.812 0.374-1.456 0.914-1.93 1.621-0.477 0.716-0.746 1.524-0.804 2.425-0.065 0.903 0.127 1.844 0.576 2.821v0c0.444 0.965 1.031 1.716 1.76 2.254 0.723 0.541 1.51 0.859 2.361 0.956 0.845 0.099 1.674-0.038 2.486-0.412v0c0.806-0.371 1.449-0.911 1.93-1.621 0.474-0.707 0.744-1.512 0.809-2.415 0.059-0.901-0.133-1.833-0.578-2.798z" fill="#fbfbfb" data-fill-palette-color="secondary"></path><path d="M211.769 238.703v0c0.458-0.306 0.94-0.402 1.446-0.287 0.507 0.106 0.914 0.388 1.22 0.846v0l4.478 6.7c1.248 1.867 1.716 3.693 1.405 5.478-0.311 1.785-1.442 3.329-3.393 4.633v0c-1.957 1.308-3.813 1.76-5.571 1.358-1.757-0.403-3.26-1.538-4.507-3.405v0l-4.478-6.7c-0.306-0.458-0.414-0.94-0.323-1.445 0.093-0.515 0.368-0.925 0.826-1.232v0c0.453-0.303 0.935-0.398 1.446-0.287 0.502 0.109 0.906 0.393 1.212 0.852v0l4.478 6.699c0.717 1.073 1.49 1.709 2.318 1.908 0.823 0.202 1.709-0.014 2.66-0.649v0c0.967-0.646 1.514-1.388 1.642-2.226 0.128-0.837-0.167-1.793-0.885-2.866v0l-4.477-6.7c-0.306-0.458-0.414-0.94-0.324-1.445 0.093-0.515 0.368-0.925 0.827-1.232z" fill="#fbfbfb" data-fill-palette-color="secondary"></path><path d="M221.709 222.47l5.301-6.002c1.344-1.522 2.703-2.34 4.077-2.454 1.369-0.118 2.752 0.439 4.148 1.671v0c0.746 0.659 1.239 1.421 1.479 2.288 0.244 0.861 0.204 1.786-0.121 2.773-0.315 0.987-0.935 2.004-1.861 3.052v0l-0.994-1.039c0.436-0.494 1.003-0.998 1.7-1.513 0.697-0.515 1.477-0.921 2.339-1.217 0.868-0.292 1.778-0.363 2.731-0.212 0.953 0.15 1.905 0.646 2.858 1.487v0c1.048 0.926 1.756 1.851 2.123 2.776 0.368 0.935 0.488 1.839 0.361 2.715-0.127 0.875-0.402 1.69-0.827 2.445-0.425 0.755-0.897 1.428-1.418 2.017v0l-5.234 5.927c-0.365 0.413-0.808 0.636-1.33 0.668-0.522 0.032-0.99-0.134-1.403-0.499v0l-13.759-12.15c-0.413-0.365-0.636-0.808-0.669-1.33-0.032-0.522 0.134-0.99 0.499-1.403zM229.434 219.375v0l-3.739 4.234-0.111-0.636 4.31 3.805-0.459 0.093 3.778-4.279c0.409-0.464 0.623-1.01 0.642-1.641 0.022-0.635-0.251-1.204-0.821-1.706v0c-0.685-0.605-1.333-0.872-1.943-0.802-0.615 0.067-1.167 0.377-1.657 0.932zM236.125 224.948v0l-3.825 4.331-0.002-0.378 5.019 4.433-0.441 0.027 3.992-4.521c0.645-0.731 0.963-1.482 0.954-2.253-0.01-0.771-0.405-1.502-1.187-2.191v0c-0.711-0.628-1.352-0.938-1.923-0.931-0.567 0.002-1.066 0.166-1.498 0.493-0.432 0.327-0.795 0.657-1.089 0.99z" fill="#fbfbfb" data-fill-palette-color="secondary"></path><path d="M256.47 213.597v0c-0.936 1.532-2.067 2.669-3.395 3.411-1.333 0.738-2.734 1.072-4.204 1.001-1.473-0.065-2.907-0.523-4.301-1.374v0c-1.624-0.992-2.808-2.168-3.553-3.529-0.745-1.361-1.098-2.762-1.06-4.204 0.038-1.442 0.419-2.757 1.144-3.946v0c0.564-0.924 1.286-1.68 2.167-2.269 0.883-0.595 1.848-1.007 2.893-1.235 1.045-0.228 2.113-0.261 3.204-0.1 1.094 0.156 2.129 0.532 3.104 1.128v0c0.426 0.284 0.673 0.671 0.744 1.163 0.073 0.486-0.023 0.947-0.289 1.383v0l-6.324 10.355-3.197-0.841 6.071-9.942 0.18 0.925-0.732-0.447c-0.549-0.288-1.133-0.389-1.753-0.302-0.622 0.077-1.204 0.289-1.747 0.635-0.552 0.349-0.999 0.804-1.342 1.366v0c-0.329 0.539-0.563 1.09-0.702 1.652-0.144 0.558-0.149 1.115-0.015 1.669 0.132 0.545 0.426 1.095 0.884 1.65 0.457 0.555 1.127 1.102 2.01 1.642v0c0.976 0.596 1.926 0.897 2.853 0.902 0.926 0.006 1.763-0.204 2.511-0.629 0.743-0.429 1.333-1.002 1.771-1.719v0c0.41-0.671 0.681-1.238 0.814-1.701 0.136-0.468 0.203-0.868 0.201-1.2-0.004-0.341-0.001-0.643 0.009-0.905v0c0.039-0.425 0.146-0.781 0.322-1.068v0c0.242-0.396 0.578-0.644 1.009-0.743 0.431-0.099 0.827-0.038 1.188 0.182v0c0.488 0.298 0.775 0.82 0.863 1.567v0c0.114 0.716 0.061 1.589-0.159 2.621-0.226 1.028-0.616 1.995-1.169 2.902z" fill="#fbfbfb" data-fill-palette-color="secondary"></path><path d="M247.503 194.6v0l2.986-6.906c0.2-0.463 0.523-0.785 0.967-0.967 0.448-0.172 0.904-0.159 1.367 0.042v0c0.451 0.195 0.76 0.512 0.929 0.951 0.16 0.443 0.14 0.896-0.06 1.358v0l-2.986 6.906c-0.203 0.469-0.525 0.791-0.967 0.967-0.445 0.181-0.902 0.171-1.37-0.032v0c-0.444-0.192-0.75-0.511-0.916-0.957-0.169-0.439-0.152-0.894 0.05-1.362zM245.201 189.912v0c0.219-0.506 0.567-0.846 1.045-1.02 0.484-0.171 0.976-0.149 1.477 0.067v0l12.978 5.611c0.272 0.117 0.518 0.158 0.739 0.122 0.218-0.03 0.407-0.121 0.568-0.271 0.16-0.15 0.286-0.331 0.376-0.541v0c0.101-0.235 0.148-0.471 0.142-0.708-0.004-0.229 0.049-0.47 0.158-0.722v0c0.117-0.272 0.351-0.464 0.7-0.577 0.352-0.119 0.75-0.082 1.194 0.11v0c0.549 0.237 0.867 0.73 0.954 1.478 0.096 0.745-0.003 1.456-0.297 2.135v0c-0.176 0.407-0.405 0.843-0.686 1.308-0.281 0.464-0.649 0.858-1.104 1.182-0.449 0.326-1.007 0.517-1.676 0.572-0.671 0.061-1.485-0.115-2.442-0.529v0l-13.117-5.671c-0.5-0.216-0.849-0.569-1.048-1.057-0.19-0.492-0.177-0.989 0.039-1.489z" fill="#fbfbfb" data-fill-palette-color="secondary"></path><path d="M262.559 182.539v0c-0.225 0.683-0.727 0.932-1.508 0.747v0l-11.392-2.777c-0.639-0.167-1.108-0.505-1.407-1.014-0.3-0.509-0.35-1.067-0.151-1.674v0c0.197-0.6 0.57-1.023 1.117-1.268 0.548-0.245 1.124-0.232 1.729 0.037v0l10.828 4.492c0.741 0.307 1.003 0.793 0.784 1.457zM269.288 184.548l-0.129 0.393c-0.191 0.581-0.494 0.977-0.91 1.187-0.416 0.21-0.914 0.22-1.496 0.029v0l-0.508-0.167c-0.588-0.193-0.987-0.498-1.196-0.913-0.204-0.414-0.21-0.911-0.02-1.493v0l0.129-0.393c0.191-0.581 0.491-0.978 0.901-1.19 0.416-0.21 0.918-0.219 1.505-0.026v0l0.508 0.167c0.581 0.191 0.977 0.494 1.187 0.91 0.21 0.416 0.22 0.914 0.029 1.496z" fill="#fbfbfb" data-fill-palette-color="secondary"></path><path d="M1.53 143.716c0-6.283 5.094-11.377 11.377-11.377 6.283 0 11.377 5.094 11.377 11.377 0 6.283-5.094 11.377-11.377 11.377-6.283 0-11.377-5.094-11.377-11.377z" fill="#fbfbfb" data-fill-palette-color="primary"></path><path d="M255.436 143.716c0-6.283 5.094-11.377 11.377-11.377 6.283 0 11.377 5.094 11.377 11.377 0 6.283-5.094 11.377-11.377 11.377-6.283 0-11.377-5.094-11.377-11.377z" fill="#fbfbfb" data-fill-palette-color="primary"></path></g></svg></g></svg></g></svg></g></svg></g><defs></defs></svg><rect width="279.72" height="279.72" fill="none" stroke="none" visibility="hidden"></rect></g></svg></g></svg>